M48
; DRILL file {KiCad (5.1.5)-3} date 19/02/2022 12:44:18 a. m.
; FORMAT={-:-/ absolute / inch / decimal}
; #@! TF.CreationDate,2022-02-19T00:44:18-06:00
; #@! TF.GenerationSoftware,Kicad,Pcbnew,(5.1.5)-3
FMAT,2
INCH
T1C0.0157
T2C0.0315
T3C0.0394
T4C0.0433
T5C0.0500
T6C0.0590
T7C0.0866
T8C0.1024
T9C0.0670
T10C0.1181
T11C0.1200
T12C0.1570
%
G90
G05
T1
X1.263Y-3.9177
X1.6307Y-3.7126
X1.6961Y-3.5957
X1.7244Y-3.4937
X1.7835Y-3.2429
X1.813Y-3.0598
X2.1708Y-2.5262
X2.1933Y-2.5016
X2.1949Y-1.8323
X2.2287Y-1.6843
X2.3087Y-3.1217
X2.3311Y-1.7055
X2.3504Y-3.1201
X2.3717Y-1.6689
X2.4075Y-3.2406
X2.5232Y-3.1059
X2.5291Y-2.9677
X2.5988Y-1.2972
X2.798Y-2.6295
X2.8516Y-1.7283
X2.8559Y-2.7169
X3.0949Y-1.7303
X3.1181Y-3.0807
X3.1791Y-3.2008
X3.3622Y-2.328
X3.3921Y-1.9413
X3.5646Y-2.7945
X3.615Y-1.9319
X3.7315Y-2.7476
X3.9437Y-3.122
X3.9571Y-2.9063
X4.0102Y-1.8831
X4.022Y-2.3744
X4.0303Y-2.1634
X4.0307Y-2.3366
X4.2531Y-2.515
X4.276Y-2.6232
X4.2921Y-2.5138
X4.3283Y-2.6193
X4.376Y-2.6181
X4.8118Y-3.3083
X4.8193Y-3.2697
X4.8323Y-2.6567
X4.8917Y-1.7465
X4.9028Y-2.5114
X4.9087Y-2.4244
X4.9106Y-2.4685
X4.9508Y-3.2555
X5.0098Y-3.2559
X5.0177Y-2.4665
X5.0299Y-2.6693
X5.1079Y-3.45
X5.187Y-1.7748
X5.4685Y-2.5008
X5.5413Y-2.9043
X5.6161Y-2.4665
X6.1909Y-3.1213
X6.2693Y-2.1622
X6.2819Y-2.9067
X6.322Y-3.1535
X6.613Y-3.4319
X7.0236Y-2.9114
X7.0433Y-2.1591
X7.7303Y-1.7524
X7.7496Y-2.5169
X7.7906Y-3.7008
X7.8008Y-3.8634
X7.9642Y-2.5161
X8.4425Y-2.9091
X8.4531Y-1.8091
X8.5236Y-2.1831
X9.4012Y-1.6846
X9.5012Y-1.9961
X5.56Y-2.625
X5.5791Y-2.5791
X5.5791Y-2.6709
X5.625Y-2.56
X5.625Y-2.69
X5.6709Y-2.5791
X5.6709Y-2.6709
X5.69Y-2.625
X9.31Y-3.375
X9.3291Y-3.3291
X9.3291Y-3.4209
X9.375Y-3.31
X9.375Y-3.44
X9.4209Y-3.3291
X9.4209Y-3.4209
X9.44Y-3.375
X1.81Y-3.375
X1.8291Y-3.3291
X1.8291Y-3.4209
X1.875Y-3.31
X1.875Y-3.44
X1.9209Y-3.3291
X1.9209Y-3.4209
X1.94Y-3.375
X1.81Y-1.875
X1.8291Y-1.8291
X1.8291Y-1.9209
X1.875Y-1.81
X1.875Y-1.94
X1.9209Y-1.8291
X1.9209Y-1.9209
X1.94Y-1.875
X9.31Y-1.875
X9.3291Y-1.8291
X9.3291Y-1.9209
X9.375Y-1.81
X9.375Y-1.94
X9.4209Y-1.8291
X9.4209Y-1.9209
X9.44Y-1.875
T2
X3.3756Y-3.5102
X3.3756Y-3.8102
X9.3764Y-3.5366
X9.3764Y-3.8366
X6.3799Y-2.7882
X6.3799Y-3.0882
X6.3772Y-1.2661
X6.3772Y-1.5661
X7.8756Y-2.2886
X7.8756Y-2.5886
X7.1232Y-2.2862
X7.1232Y-2.5862
X7.878Y-1.2661
X7.878Y-1.5661
X8.6252Y-3.5469
X8.6252Y-3.8469
X7.8795Y-2.7807
X7.8795Y-3.0807
X6.3732Y-2.2874
X6.3732Y-2.5874
X9.3677Y-2.2862
X9.3677Y-2.5862
X4.1291Y-2.2862
X4.1291Y-2.5862
X2.6244Y-3.5102
X2.6244Y-3.8102
X2.6268Y-2.7894
X2.6268Y-3.0894
X3.374Y-2.7894
X3.374Y-3.0894
X8.8438Y-3.375
X9.1437Y-3.375
X4.8764Y-1.265
X4.8764Y-1.565
X9.374Y-1.2661
X9.374Y-1.5661
X2.0938Y-1.875
X2.3937Y-1.875
X9.5938Y-1.875
X9.8937Y-1.875
X2.1062Y-3.375
X2.4062Y-3.375
X7.1307Y-2.7894
X7.1307Y-3.0894
X1.8886Y-3.5291
X1.8886Y-3.8291
X4.1303Y-3.5102
X4.1303Y-3.8102
X8.6189Y-2.2862
X8.6189Y-2.5862
X9.5938Y-2.625
X9.8937Y-2.625
X4.1291Y-1.265
X4.1291Y-1.565
X4.1252Y-2.787
X4.1252Y-3.087
X7.1331Y-3.374
X7.4331Y-3.374
X5.6287Y-2.787
X5.6287Y-3.087
X2.6335Y-2.6331
X2.9335Y-2.6331
X4.8713Y-2.2862
X4.8713Y-2.5862
X8.6252Y-1.265
X8.6252Y-1.565
X7.8795Y-3.5469
X7.8795Y-3.8469
X1.3562Y-1.875
X1.6562Y-1.875
X9.5938Y-3.375
X9.8937Y-3.375
X8.6228Y-3.0331
X8.6228Y-3.3331
X5.6287Y-2.0122
X5.6287Y-2.3122
X1.8835Y-1.2244
X1.8835Y-1.5244
X5.6248Y-1.265
X5.6248Y-1.565
X4.8764Y-2.787
X4.8764Y-3.087
X9.3764Y-2.7972
X9.3764Y-3.0972
X7.5433Y-3.3728
X7.8433Y-3.3728
X7.1283Y-1.2661
X7.1283Y-1.5661
X2.0938Y-2.625
X2.3937Y-2.625
X2.6276Y-1.226
X2.6276Y-1.526
X1.3438Y-3.375
X1.6438Y-3.375
T3
X9.5992Y-1.324
X9.6992Y-1.324
X9.7992Y-1.324
X9.8992Y-1.324
X1.2047Y-3.6496
X1.2047Y-3.748
X1.2047Y-3.8465
X1.7756Y-3.6496
X1.7756Y-3.8465
X4.2965Y-1.8795
X4.3965Y-1.8795
X4.4965Y-1.8795
X4.5965Y-1.8795
X5.0843Y-1.8819
X5.1843Y-1.8819
X5.2843Y-1.8819
X5.3843Y-1.8819
X1.3303Y-2.6264
X1.4303Y-2.6264
X1.5303Y-2.6264
X1.6303Y-2.6264
T4
X1.8024Y-2.3988
X1.8024Y-2.6547
X1.9795Y-2.3988
X1.9795Y-2.6547
T5
X2.6398Y-1.8535
X2.6398Y-2.4535
X2.7398Y-1.8535
X2.7398Y-2.4535
X2.8398Y-1.8535
X2.8398Y-2.4535
X2.9398Y-1.8535
X2.9398Y-2.4535
X3.0398Y-1.8535
X3.0398Y-2.4535
X3.1398Y-1.8535
X3.1398Y-2.4535
X3.2398Y-1.8535
X3.2398Y-2.4535
X3.3398Y-1.8535
X3.3398Y-2.4535
X3.4398Y-1.8535
X3.4398Y-2.4535
X3.5398Y-1.8535
X3.5398Y-2.4535
X3.6398Y-1.8535
X3.6398Y-2.4535
X3.7398Y-1.8535
X3.7398Y-2.4535
T6
X1.3496Y-3.6496
X1.5996Y-3.5496
T7
X5.625Y-2.625
X9.375Y-3.375
X1.875Y-3.375
X1.875Y-1.875
X9.375Y-1.875
T8
X1.5Y-3.5276
X1.5Y-3.9685
T9
X5.8Y-1.5
X6.2Y-1.5
X8.05Y-1.5
X8.45Y-1.5
X2.8Y-3.0
X3.2Y-3.0
X7.3Y-1.5
X7.7Y-1.5
X9.55Y-3.75
X9.95Y-3.75
X9.55Y-3.0
X9.95Y-3.0
X2.05Y-1.5
X2.45Y-1.5
X4.3Y-3.0
X4.7Y-3.0
X3.55Y-1.5
X3.95Y-1.5
X2.05Y-3.0
X2.45Y-3.0
X1.3Y-1.5
X1.7Y-1.5
X2.05Y-2.25
X2.45Y-2.25
X5.05Y-3.0
X5.45Y-3.0
X4.6839Y-3.7508
X5.0839Y-3.7508
X3.55Y-2.25
X3.95Y-2.25
X1.3Y-3.0
X1.7Y-3.0
X7.3Y-2.25
X7.7Y-2.25
X9.55Y-2.25
X9.95Y-2.25
X4.3Y-2.25
X4.7Y-2.25
X2.8Y-2.25
X3.2Y-2.25
X7.3Y-3.75
X7.7Y-3.75
X8.05Y-3.75
X8.45Y-3.75
X5.8Y-2.25
X6.2Y-2.25
X8.05Y-2.25
X8.45Y-2.25
X6.55Y-2.25
X6.95Y-2.25
X7.3Y-3.0
X7.7Y-3.0
X9.55Y-1.5
X9.95Y-1.5
X8.8Y-3.75
X9.2Y-3.75
X3.55Y-3.75
X3.95Y-3.75
X5.05Y-1.5
X5.45Y-1.5
X8.05Y-3.0
X8.45Y-3.0
X4.3Y-1.5
X4.7Y-1.5
X6.55Y-3.0
X6.95Y-3.0
X2.8Y-1.5
X3.2Y-1.5
X1.3Y-2.25
X1.7Y-2.25
X2.8Y-3.75
X3.2Y-3.75
X5.05Y-2.25
X5.45Y-2.25
X8.8Y-3.0
X9.2Y-3.0
X1.2996Y-3.7496
X1.6996Y-3.7496
X6.1748Y-3.75
X6.5748Y-3.75
X2.05Y-3.75
X2.45Y-3.75
X6.55Y-1.5
X6.95Y-1.5
X3.55Y-3.0
X3.95Y-3.0
X8.8Y-2.25
X9.2Y-2.25
X8.8Y-1.5
X9.2Y-1.5
X5.8Y-3.0
X6.2Y-3.0
T10
X3.6Y-3.65
X3.85Y-3.55
X5.1Y-1.4
X5.35Y-1.3
X8.1Y-2.9
X8.35Y-2.8
X4.35Y-1.4
X4.6Y-1.3
X6.6Y-2.9
X6.85Y-2.8
X2.85Y-1.4
X3.1Y-1.3
X1.35Y-2.15
X1.6Y-2.05
X2.85Y-3.65
X3.1Y-3.55
X5.1Y-2.15
X5.35Y-2.05
X8.85Y-2.9
X9.1Y-2.8
X6.2248Y-3.65
X6.4748Y-3.55
X2.1Y-3.65
X2.35Y-3.55
X6.6Y-1.4
X6.85Y-1.3
X3.6Y-2.9
X3.85Y-2.8
X8.85Y-2.15
X9.1Y-2.05
X8.85Y-1.4
X9.1Y-1.3
X5.85Y-2.9
X6.1Y-2.8
X5.85Y-1.4
X6.1Y-1.3
X8.1Y-1.4
X8.35Y-1.3
X2.85Y-2.9
X3.1Y-2.8
X7.35Y-1.4
X7.6Y-1.3
X9.6Y-3.65
X9.85Y-3.55
X9.6Y-2.9
X9.85Y-2.8
X2.1Y-1.4
X2.35Y-1.3
X4.35Y-2.9
X4.6Y-2.8
X3.6Y-1.4
X3.85Y-1.3
X2.1Y-2.9
X2.35Y-2.8
X1.35Y-1.4
X1.6Y-1.3
X2.1Y-2.15
X2.35Y-2.05
X5.1Y-2.9
X5.35Y-2.8
X4.7339Y-3.6508
X4.9839Y-3.5508
X3.6Y-2.15
X3.85Y-2.05
X1.35Y-2.9
X1.6Y-2.8
X7.35Y-2.15
X7.6Y-2.05
X9.6Y-2.15
X9.85Y-2.05
X4.35Y-2.15
X4.6Y-2.05
X2.85Y-2.15
X3.1Y-2.05
X7.35Y-3.65
X7.6Y-3.55
X8.1Y-3.65
X8.35Y-3.55
X5.85Y-2.15
X6.1Y-2.05
X8.1Y-2.15
X8.35Y-2.05
X6.6Y-2.15
X6.85Y-2.05
X7.35Y-2.9
X7.6Y-2.8
X9.65Y-1.7
X9.9Y-1.6
X8.85Y-3.65
X9.1Y-3.55
T11
X4.4154Y-4.0262
X5.3524Y-4.0262
X5.9063Y-4.025
X6.8433Y-4.025
T12
X5.25Y-3.0
X4.8839Y-3.7508
X3.75Y-2.25
X1.5Y-3.0
X7.5Y-2.25
X9.75Y-2.25
X4.5Y-2.25
X3.0Y-2.25
X7.5Y-3.75
X8.25Y-3.75
X6.0Y-2.25
X8.25Y-2.25
X6.75Y-2.25
X7.5Y-3.0
X9.75Y-1.5
X9.0Y-3.75
X3.75Y-3.75
X5.25Y-1.5
X8.25Y-3.0
X4.5Y-1.5
X6.75Y-3.0
X3.0Y-1.5
X4.4154Y-3.4262
X5.3524Y-3.4262
X5.9063Y-3.425
X6.8433Y-3.425
X1.5Y-2.25
X3.0Y-3.75
X5.25Y-2.25
X9.0Y-3.0
X1.4996Y-3.7496
X6.3748Y-3.75
X2.25Y-3.75
X6.75Y-1.5
X3.75Y-3.0
X9.0Y-2.25
X9.0Y-1.5
X6.0Y-3.0
X6.0Y-1.5
X8.25Y-1.5
X3.0Y-3.0
X7.5Y-1.5
X9.75Y-3.75
X9.75Y-3.0
X2.25Y-1.5
X4.5Y-3.0
X3.75Y-1.5
X2.25Y-3.0
X1.5Y-1.5
X2.25Y-2.25
T0
M30
