G04 #@! TF.GenerationSoftware,KiCad,Pcbnew,(5.1.5)-3*
G04 #@! TF.CreationDate,2022-02-19T00:44:22-06:00*
G04 #@! TF.ProjectId,Contra,436f6e74-7261-42e6-9b69-6361645f7063,rev?*
G04 #@! TF.SameCoordinates,Original*
G04 #@! TF.FileFunction,Soldermask,Bot*
G04 #@! TF.FilePolarity,Negative*
%FSLAX46Y46*%
G04 Gerber Fmt 4.6, Leading zero omitted, Abs format (unit mm)*
G04 Created by KiCad (PCBNEW (5.1.5)-3) date 2022-02-19 00:44:22*
%MOMM*%
%LPD*%
G04 APERTURE LIST*
%ADD10R,2.000000X2.000000*%
%ADD11O,2.000000X2.000000*%
%ADD12R,2.950000X2.900000*%
%ADD13C,2.101800*%
%ADD14C,4.387800*%
%ADD15C,3.400000*%
%ADD16C,2.686000*%
%ADD17C,2.400000*%
%ADD18C,2.432000*%
%ADD19C,4.800000*%
%ADD20C,1.100000*%
%ADD21C,3.448000*%
%ADD22C,3.600000*%
%ADD23R,2.400000X2.400000*%
%ADD24R,2.100000X2.100000*%
%ADD25O,2.100000X2.100000*%
G04 APERTURE END LIST*
D10*
X42068750Y-47625000D03*
D11*
X34448750Y-47625000D03*
D12*
X68640000Y-35560000D03*
D13*
X71120000Y-38100000D03*
X81280000Y-38100000D03*
D14*
X76200000Y-38100000D03*
D15*
X72390000Y-35560000D03*
X78740000Y-33020000D03*
D12*
X82490000Y-33020000D03*
X241360000Y-43180000D03*
D15*
X245110000Y-43180000D03*
X251460000Y-40640000D03*
D14*
X247650000Y-38100000D03*
D13*
X242570000Y-38100000D03*
X252730000Y-38100000D03*
D12*
X255210000Y-40640000D03*
X106740000Y-54610000D03*
D13*
X109220000Y-57150000D03*
X119380000Y-57150000D03*
D14*
X114300000Y-57150000D03*
D15*
X110490000Y-54610000D03*
X116840000Y-52070000D03*
D12*
X120590000Y-52070000D03*
X30540000Y-35560000D03*
D13*
X33020000Y-38100000D03*
X43180000Y-38100000D03*
D14*
X38100000Y-38100000D03*
D15*
X34290000Y-35560000D03*
X40640000Y-33020000D03*
D12*
X44390000Y-33020000D03*
X182940000Y-35560000D03*
D13*
X185420000Y-38100000D03*
X195580000Y-38100000D03*
D14*
X190500000Y-38100000D03*
D15*
X186690000Y-35560000D03*
X193040000Y-33020000D03*
D12*
X196790000Y-33020000D03*
X221040000Y-35560000D03*
D13*
X223520000Y-38100000D03*
X233680000Y-38100000D03*
D14*
X228600000Y-38100000D03*
D15*
X224790000Y-35560000D03*
X231140000Y-33020000D03*
D12*
X234890000Y-33020000D03*
X139640000Y-52070000D03*
D15*
X135890000Y-52070000D03*
X129540000Y-54610000D03*
D14*
X133350000Y-57150000D03*
D13*
X138430000Y-57150000D03*
X128270000Y-57150000D03*
D12*
X125790000Y-54610000D03*
X106740000Y-35560000D03*
D13*
X109220000Y-38100000D03*
X119380000Y-38100000D03*
D14*
X114300000Y-38100000D03*
D15*
X110490000Y-35560000D03*
X116840000Y-33020000D03*
D12*
X120590000Y-33020000D03*
X177740000Y-52070000D03*
D15*
X173990000Y-52070000D03*
X167640000Y-54610000D03*
D14*
X171450000Y-57150000D03*
D13*
X176530000Y-57150000D03*
X166370000Y-57150000D03*
D12*
X163890000Y-54610000D03*
X182940000Y-54610000D03*
D13*
X185420000Y-57150000D03*
X195580000Y-57150000D03*
D14*
X190500000Y-57150000D03*
D15*
X186690000Y-54610000D03*
X193040000Y-52070000D03*
D12*
X196790000Y-52070000D03*
X101540000Y-33020000D03*
D15*
X97790000Y-33020000D03*
X91440000Y-35560000D03*
D14*
X95250000Y-38100000D03*
D13*
X100330000Y-38100000D03*
X90170000Y-38100000D03*
D12*
X87690000Y-35560000D03*
X215840000Y-33020000D03*
D15*
X212090000Y-33020000D03*
X205740000Y-35560000D03*
D14*
X209550000Y-38100000D03*
D13*
X214630000Y-38100000D03*
X204470000Y-38100000D03*
D12*
X201990000Y-35560000D03*
X177740000Y-33020000D03*
D15*
X173990000Y-33020000D03*
X167640000Y-35560000D03*
D14*
X171450000Y-38100000D03*
D13*
X176530000Y-38100000D03*
X166370000Y-38100000D03*
D12*
X163890000Y-35560000D03*
X30540000Y-54610000D03*
D13*
X33020000Y-57150000D03*
X43180000Y-57150000D03*
D14*
X38100000Y-57150000D03*
D15*
X34290000Y-54610000D03*
X40640000Y-52070000D03*
D12*
X44390000Y-52070000D03*
X139640000Y-33020000D03*
D15*
X135890000Y-33020000D03*
X129540000Y-35560000D03*
D14*
X133350000Y-38100000D03*
D13*
X138430000Y-38100000D03*
X128270000Y-38100000D03*
D12*
X125790000Y-35560000D03*
X144840000Y-54610000D03*
D13*
X147320000Y-57150000D03*
X157480000Y-57150000D03*
D14*
X152400000Y-57150000D03*
D15*
X148590000Y-54610000D03*
X154940000Y-52070000D03*
D12*
X158690000Y-52070000D03*
X101540000Y-52070000D03*
D15*
X97790000Y-52070000D03*
X91440000Y-54610000D03*
D14*
X95250000Y-57150000D03*
D13*
X100330000Y-57150000D03*
X90170000Y-57150000D03*
D12*
X87690000Y-54610000D03*
X63440000Y-33020000D03*
D15*
X59690000Y-33020000D03*
X53340000Y-35560000D03*
D14*
X57150000Y-38100000D03*
D13*
X62230000Y-38100000D03*
X52070000Y-38100000D03*
D12*
X49590000Y-35560000D03*
D16*
X34280000Y-92700000D03*
X40630000Y-90160000D03*
D11*
X162050000Y-70820000D03*
D10*
X162050000Y-78440000D03*
D11*
X199220000Y-85670000D03*
D10*
X191600000Y-85670000D03*
X219020000Y-84660000D03*
D11*
X219020000Y-77040000D03*
D10*
X142970000Y-78410000D03*
D11*
X142970000Y-70790000D03*
D10*
X104910000Y-96780000D03*
D11*
X104910000Y-89160000D03*
X224631250Y-85725000D03*
D10*
X232251250Y-85725000D03*
X200140000Y-78250000D03*
D11*
X200140000Y-70630000D03*
D10*
X238160000Y-97450000D03*
D11*
X238160000Y-89830000D03*
D10*
X238160000Y-78670000D03*
D11*
X238160000Y-71050000D03*
D10*
X251301250Y-85725000D03*
D11*
X243681250Y-85725000D03*
X181180000Y-85700000D03*
D10*
X188800000Y-85700000D03*
X47970000Y-97260000D03*
D11*
X47970000Y-89640000D03*
X85700000Y-70850000D03*
D10*
X85700000Y-78470000D03*
D11*
X219080000Y-90090000D03*
D10*
X219080000Y-97710000D03*
D11*
X85740000Y-89160000D03*
D10*
X85740000Y-96780000D03*
X123860000Y-78410000D03*
D11*
X123860000Y-70790000D03*
X200140000Y-90090000D03*
D10*
X200140000Y-97710000D03*
D11*
X104780000Y-70790000D03*
D10*
X104780000Y-78410000D03*
D11*
X53181250Y-47625000D03*
D10*
X60801250Y-47625000D03*
X104880000Y-65690000D03*
D11*
X104880000Y-58070000D03*
X180930000Y-58070000D03*
D10*
X180930000Y-65690000D03*
D11*
X66740000Y-31140000D03*
D10*
X66740000Y-38760000D03*
X47840000Y-38720000D03*
D11*
X47840000Y-31100000D03*
X123730000Y-58070000D03*
D10*
X123730000Y-65690000D03*
D11*
X243681250Y-66675000D03*
D10*
X251301250Y-66675000D03*
X238100000Y-39780000D03*
D11*
X238100000Y-32160000D03*
D10*
X237940000Y-65690000D03*
D11*
X237940000Y-58070000D03*
X200040000Y-58130000D03*
D10*
X200040000Y-65750000D03*
X60801250Y-66675000D03*
D11*
X53181250Y-66675000D03*
D10*
X142970000Y-58730000D03*
D11*
X142970000Y-51110000D03*
X66890000Y-66880000D03*
D10*
X74510000Y-66880000D03*
X218920000Y-65690000D03*
D11*
X218920000Y-58070000D03*
D10*
X123860000Y-39750000D03*
D11*
X123860000Y-32130000D03*
D10*
X161880000Y-65720000D03*
D11*
X161880000Y-58100000D03*
X161980000Y-32160000D03*
D10*
X161980000Y-39780000D03*
D11*
X181060000Y-32160000D03*
D10*
X181060000Y-39780000D03*
D12*
X201990000Y-92710000D03*
D13*
X204470000Y-95250000D03*
X214630000Y-95250000D03*
D14*
X209550000Y-95250000D03*
D15*
X205740000Y-92710000D03*
X212090000Y-90170000D03*
D12*
X215840000Y-90170000D03*
X130340000Y-90190000D03*
D15*
X126590000Y-90190000D03*
X120240000Y-92730000D03*
D14*
X124050000Y-95270000D03*
D13*
X129130000Y-95270000D03*
X118970000Y-95270000D03*
D12*
X116490000Y-92730000D03*
X240090000Y-73660000D03*
D13*
X242570000Y-76200000D03*
X252730000Y-76200000D03*
D14*
X247650000Y-76200000D03*
D15*
X243840000Y-73660000D03*
X250190000Y-71120000D03*
D12*
X253940000Y-71120000D03*
X63440000Y-90170000D03*
D15*
X59690000Y-90170000D03*
X53340000Y-92710000D03*
D14*
X57150000Y-95250000D03*
D13*
X62230000Y-95250000D03*
X52070000Y-95250000D03*
D12*
X49590000Y-92710000D03*
X182940000Y-92710000D03*
D13*
X185420000Y-95250000D03*
X195580000Y-95250000D03*
D14*
X190500000Y-95250000D03*
D15*
X186690000Y-92710000D03*
X193040000Y-90170000D03*
D12*
X196790000Y-90170000D03*
D17*
X45780000Y-67430000D03*
X50280000Y-67430000D03*
X45780000Y-60930000D03*
X50280000Y-60930000D03*
D12*
X154360000Y-92710000D03*
D13*
X156840000Y-95250000D03*
X167000000Y-95250000D03*
D14*
X161920000Y-95250000D03*
D15*
X158110000Y-92710000D03*
X164460000Y-90170000D03*
D12*
X168210000Y-90170000D03*
X101540000Y-90170000D03*
D15*
X97790000Y-90170000D03*
X91440000Y-92710000D03*
D14*
X95250000Y-95250000D03*
D13*
X100330000Y-95250000D03*
X90170000Y-95250000D03*
D12*
X87690000Y-92710000D03*
X125790000Y-73660000D03*
D13*
X128270000Y-76200000D03*
X138430000Y-76200000D03*
D14*
X133350000Y-76200000D03*
D15*
X129540000Y-73660000D03*
X135890000Y-71120000D03*
D12*
X139640000Y-71120000D03*
X221040000Y-92710000D03*
D13*
X223520000Y-95250000D03*
X233680000Y-95250000D03*
D14*
X228600000Y-95250000D03*
D15*
X224790000Y-92710000D03*
X231140000Y-90170000D03*
D12*
X234890000Y-90170000D03*
X68640000Y-54610000D03*
D13*
X71120000Y-57150000D03*
X81280000Y-57150000D03*
D14*
X76200000Y-57150000D03*
D15*
X72390000Y-54610000D03*
X78740000Y-52070000D03*
D12*
X82490000Y-52070000D03*
X63440000Y-52070000D03*
D15*
X59690000Y-52070000D03*
X53340000Y-54610000D03*
D14*
X57150000Y-57150000D03*
D13*
X62230000Y-57150000D03*
X52070000Y-57150000D03*
D12*
X49590000Y-54610000D03*
X253940000Y-90170000D03*
D15*
X250190000Y-90170000D03*
X243840000Y-92710000D03*
D14*
X247650000Y-95250000D03*
D13*
X252730000Y-95250000D03*
X242570000Y-95250000D03*
D12*
X240090000Y-92710000D03*
X158690000Y-71120000D03*
D15*
X154940000Y-71120000D03*
X148590000Y-73660000D03*
D14*
X152400000Y-76200000D03*
D13*
X157480000Y-76200000D03*
X147320000Y-76200000D03*
D12*
X144840000Y-73660000D03*
X221040000Y-73660000D03*
D13*
X223520000Y-76200000D03*
X233680000Y-76200000D03*
D14*
X228600000Y-76200000D03*
D15*
X224790000Y-73660000D03*
X231140000Y-71120000D03*
D12*
X234890000Y-71120000D03*
X177740000Y-71120000D03*
D15*
X173990000Y-71120000D03*
X167640000Y-73660000D03*
D14*
X171450000Y-76200000D03*
D13*
X176530000Y-76200000D03*
X166370000Y-76200000D03*
D12*
X163890000Y-73660000D03*
X182940000Y-73660000D03*
D13*
X185420000Y-76200000D03*
X195580000Y-76200000D03*
D14*
X190500000Y-76200000D03*
D15*
X186690000Y-73660000D03*
X193040000Y-71120000D03*
D12*
X196790000Y-71120000D03*
X253940000Y-52070000D03*
D15*
X250190000Y-52070000D03*
X243840000Y-54610000D03*
D14*
X247650000Y-57150000D03*
D13*
X252730000Y-57150000D03*
X242570000Y-57150000D03*
D12*
X240090000Y-54610000D03*
X49590000Y-73660000D03*
D13*
X52070000Y-76200000D03*
X62230000Y-76200000D03*
D14*
X57150000Y-76200000D03*
D15*
X53340000Y-73660000D03*
X59690000Y-71120000D03*
D12*
X63440000Y-71120000D03*
X82490000Y-71120000D03*
D15*
X78740000Y-71120000D03*
X72390000Y-73660000D03*
D14*
X76200000Y-76200000D03*
D13*
X81280000Y-76200000D03*
X71120000Y-76200000D03*
D12*
X68640000Y-73660000D03*
X87690000Y-73660000D03*
D13*
X90170000Y-76200000D03*
X100330000Y-76200000D03*
D14*
X95250000Y-76200000D03*
D15*
X91440000Y-73660000D03*
X97790000Y-71120000D03*
D12*
X101540000Y-71120000D03*
X82490000Y-90170000D03*
D15*
X78740000Y-90170000D03*
X72390000Y-92710000D03*
D14*
X76200000Y-95250000D03*
D13*
X81280000Y-95250000D03*
X71120000Y-95250000D03*
D12*
X68640000Y-92710000D03*
X201990000Y-73660000D03*
D13*
X204470000Y-76200000D03*
X214630000Y-76200000D03*
D14*
X209550000Y-76200000D03*
D15*
X205740000Y-73660000D03*
X212090000Y-71120000D03*
D12*
X215840000Y-71120000D03*
X215840000Y-52070000D03*
D15*
X212090000Y-52070000D03*
X205740000Y-54610000D03*
D14*
X209550000Y-57150000D03*
D13*
X214630000Y-57150000D03*
X204470000Y-57150000D03*
D12*
X201990000Y-54610000D03*
X44390000Y-71120000D03*
D15*
X40640000Y-71120000D03*
X34290000Y-73660000D03*
D14*
X38100000Y-76200000D03*
D13*
X43180000Y-76200000D03*
X33020000Y-76200000D03*
D12*
X30540000Y-73660000D03*
X120590000Y-71120000D03*
D15*
X116840000Y-71120000D03*
X110490000Y-73660000D03*
D14*
X114300000Y-76200000D03*
D13*
X119380000Y-76200000D03*
X109220000Y-76200000D03*
D12*
X106740000Y-73660000D03*
X144840000Y-35560000D03*
D13*
X147320000Y-38100000D03*
X157480000Y-38100000D03*
D14*
X152400000Y-38100000D03*
D15*
X148590000Y-35560000D03*
X154940000Y-33020000D03*
D12*
X158690000Y-33020000D03*
X221040000Y-54610000D03*
D13*
X223520000Y-57150000D03*
X233680000Y-57150000D03*
D14*
X228600000Y-57150000D03*
D15*
X224790000Y-54610000D03*
X231140000Y-52070000D03*
D12*
X234890000Y-52070000D03*
D11*
X181120000Y-70850000D03*
D10*
X181120000Y-78470000D03*
X66720000Y-78470000D03*
D11*
X66720000Y-70850000D03*
X200100000Y-32160000D03*
D10*
X200100000Y-39780000D03*
D18*
X67050000Y-47080000D03*
X69590000Y-47080000D03*
X72130000Y-47080000D03*
X74670000Y-47080000D03*
X77210000Y-47080000D03*
X79750000Y-47080000D03*
X82290000Y-47080000D03*
X84830000Y-47080000D03*
X87370000Y-47080000D03*
X89910000Y-47080000D03*
X92450000Y-47080000D03*
X94990000Y-47080000D03*
X67050000Y-62320000D03*
X69590000Y-62320000D03*
X72130000Y-62320000D03*
X74670000Y-62320000D03*
X77210000Y-62320000D03*
X79750000Y-62320000D03*
X82290000Y-62320000D03*
X84830000Y-62320000D03*
X87370000Y-62320000D03*
X89910000Y-62320000D03*
X92450000Y-62320000D03*
X94990000Y-62320000D03*
D10*
X104880000Y-39750000D03*
D11*
X104880000Y-32130000D03*
X53498750Y-85725000D03*
D10*
X61118750Y-85725000D03*
D11*
X66660000Y-89160000D03*
D10*
X66660000Y-96780000D03*
D11*
X34131250Y-85725000D03*
D10*
X41751250Y-85725000D03*
D11*
X142870000Y-32130000D03*
D10*
X142870000Y-39750000D03*
X219080000Y-39750000D03*
D11*
X219080000Y-32130000D03*
D10*
X251301250Y-47625000D03*
D11*
X243681250Y-47625000D03*
D19*
X238125000Y-85725000D03*
D20*
X239775000Y-85725000D03*
X239291726Y-86891726D03*
X238125000Y-87375000D03*
X236958274Y-86891726D03*
X236475000Y-85725000D03*
X236958274Y-84558274D03*
X238125000Y-84075000D03*
X239291726Y-84558274D03*
D19*
X238125000Y-47625000D03*
D20*
X239775000Y-47625000D03*
X239291726Y-48791726D03*
X238125000Y-49275000D03*
X236958274Y-48791726D03*
X236475000Y-47625000D03*
X236958274Y-46458274D03*
X238125000Y-45975000D03*
X239291726Y-46458274D03*
D19*
X142875000Y-66675000D03*
D20*
X144525000Y-66675000D03*
X144041726Y-67841726D03*
X142875000Y-68325000D03*
X141708274Y-67841726D03*
X141225000Y-66675000D03*
X141708274Y-65508274D03*
X142875000Y-65025000D03*
X144041726Y-65508274D03*
D19*
X47625000Y-47625000D03*
D20*
X49275000Y-47625000D03*
X48791726Y-48791726D03*
X47625000Y-49275000D03*
X46458274Y-48791726D03*
X45975000Y-47625000D03*
X46458274Y-46458274D03*
X47625000Y-45975000D03*
X48791726Y-46458274D03*
D19*
X47625000Y-85725000D03*
D20*
X49275000Y-85725000D03*
X48791726Y-86891726D03*
X47625000Y-87375000D03*
X46458274Y-86891726D03*
X45975000Y-85725000D03*
X46458274Y-84558274D03*
X47625000Y-84075000D03*
X48791726Y-84558274D03*
D21*
X135950000Y-102265000D03*
X112150000Y-102265000D03*
D14*
X135950000Y-87025000D03*
X112150000Y-87025000D03*
X150020000Y-86995000D03*
X173820000Y-86995000D03*
D21*
X150020000Y-102235000D03*
X173820000Y-102235000D03*
D17*
X45100000Y-97700000D03*
X45100000Y-92700000D03*
D22*
X38100000Y-100800000D03*
X38100000Y-89600000D03*
D17*
X30600000Y-97700000D03*
X30600000Y-95200000D03*
D23*
X30600000Y-92700000D03*
D24*
X41410000Y-66710000D03*
D25*
X38870000Y-66710000D03*
X36330000Y-66710000D03*
X33790000Y-66710000D03*
X251440000Y-33630000D03*
X248900000Y-33630000D03*
X246360000Y-33630000D03*
D24*
X243820000Y-33630000D03*
X136760000Y-47800000D03*
D25*
X134220000Y-47800000D03*
X131680000Y-47800000D03*
X129140000Y-47800000D03*
X109130000Y-47740000D03*
X111670000Y-47740000D03*
X114210000Y-47740000D03*
D24*
X116750000Y-47740000D03*
M02*
